<?xml version="1.0" standalone="no"?>
<!DOCTYPE svg PUBLIC "-//W3C//DTD SVG 20010904//EN" "http://www.w3.org/TR/2001/REC-SVG-20010904/DTD/svg10.dtd">
<svg xmlns="http://www.w3.org/2000/svg" version="1.0" width="519.000000pt" height="661.000000pt" viewBox="0 0 519.000000 661.000000" preserveAspectRatio="xMidYMid meet">
<metadata>
Created by potrace 1.16, written by Peter Selinger 2001-2019
<meta name="Producer" content="Online-Convert"/></metadata>
<g transform="translate(0.000000,661.000000) scale(0.120000,-0.120000)" fill="#000000" stroke="none">
<path d="M3997 6433 c-7 -13 12 -55 22 -48 6 3 7 -5 2 -22 -4 -16 -6 -32 -4 -38 5 -17 -41 -61 -63 -59 -18 1 -137 18 -214 30 -14 2 -63 6 -110 10 -47 3 -109 9 -139 13 -29 5 -191 7 -360 6 -239 -1 -349 -7 -501 -24 -107 -12 -197 -25 -200 -28 -3 -3 18 -3 45 1 143 19 554 45 595 38 36 -6 24 -8 -65 -10 -60 0 -119 -3 -130 -5 -18 -4 -83 -11 -220 -22 -22 -2 -52 -4 -67 -4 -17 -1 -28 -7 -28 -15 0 -15 -45 -27 -94 -25 l-31 1 30 8 30 8 -32 1 c-17 0 -38 -5 -45 -13 -8 -8 -46 -16 -88 -20 -40 -3 -76 -9 -79 -12 -3 -4 13 -4 37 -1 23 3 42 1 42 -4 0 -5 -10 -9 -22 -9 -12 0 -19 -3 -16 -6 3 -3 23 -2 44 2 31 6 35 9 19 14 -13 5 1 9 44 14 86 10 430 15 366 6 -27 -4 -70 -10 -95 -14 -25 -4 -87 -7 -139 -6 -92 0 -125 -8 -43 -12 23 -1 39 -4 37 -8 -3 -4 15 -4 38 1 23 4 62 8 87 7 25 0 35 -3 23 -5 -13 -2 -23 -11 -23 -19 0 -8 -11 -15 -25 -15 -38 -2 -43 -3 -52 -12 -4 -5 10 -8 32 -6 22 2 41 -1 43 -7 2 -10 0 -11 -60 -14 -24 -1 -37 -4 -30 -7 22 -9 1 -23 -36 -24 -29 0 -33 -2 -17 -8 20 -8 101 -5 117 5 4 3 8 0 8 -6 0 -6 -13 -13 -30 -16 -16 -4 -28 -10 -25 -14 2 -3 -22 -4 -53 -2 -51 4 -55 3 -44 -11 17 -21 -7 -28 -82 -26 -31 1 -59 -1 -63 -4 -3 -4 61 -8 143 -9 112 -1 132 -3 79 -7 -38 -4 -61 -9 -50 -11 11 -3 -25 -5 -80 -4 -84 2 -91 1 -40 -5 33 -4 52 -8 43 -9 -10 -1 -18 -6 -18 -10 0 -5 33 -7 74 -4 48 3 76 1 80 -7 5 -8 -15 -11 -68 -11 -44 0 -76 -4 -76 -10 0 -5 7 -10 15 -10 8 0 15 -5 15 -11 0 -5 -6 -7 -12 -4 -7 4 -4 -1 6 -9 16 -13 22 -13 28 -3 5 8 8 3 8 -13 0 -20 2 -22 10 -10 15 24 12 1 -6 -36 -12 -25 -23 -34 -41 -34 -14 0 -21 -4 -18 -10 4 -6 10 -8 14 -5 5 2 7 -9 6 -25 -1 -16 1 -28 5 -25 4 3 10 -2 14 -10 3 -9 18 -15 39 -15 19 0 56 -3 83 -7 l49 -7 -35 -7 c-19 -3 26 -7 102 -8 92 -1 139 -5 144 -13 5 -8 -17 -9 -89 -4 -61 4 -98 3 -102 -4 -3 -5 -18 -9 -33 -9 l-27 1 30 9 c22 6 16 7 -25 4 -30 -3 -68 -7 -85 -10 -18 -3 -11 1 15 10 l45 15 -49 -5 c-27 -3 -63 -6 -80 -6 l-31 -1 30 -9 c24 -6 18 -7 -25 -5 -30 2 -45 1 -32 -1 13 -3 22 -10 19 -16 -3 -9 26 -10 117 -6 66 4 141 10 166 14 35 5 41 4 28 -5 -14 -8 -245 -38 -405 -52 -7 -1 -10 -5 -7 -9 2 -5 10 -6 17 -4 7 2 66 6 132 8 94 4 110 3 75 -5 -25 -5 -51 -10 -57 -10 -7 -1 -13 -5 -13 -10 0 -4 -12 -8 -26 -8 -14 0 -32 -6 -40 -14 -18 -19 -18 -32 0 -17 9 8 16 9 21 2 3 -6 -5 -13 -19 -17 -24 -6 -24 -6 -5 -25 21 -21 25 -44 7 -55 -7 -5 -8 -2 -3 7 7 12 6 12 -6 0 -11 -10 -11 -15 -1 -18 6 -3 10 -9 7 -13 -3 -5 -12 -7 -20 -4 -9 4 -12 -1 -11 -13 2 -12 11 -17 26 -15 14 1 20 -3 17 -10 -2 -8 -18 -12 -36 -11 -17 1 -29 -3 -26 -8 6 -9 -11 -12 -58 -9 -21 1 -30 -4 -34 -19 -4 -16 -14 -21 -42 -23 l-36 -1 35 -4 c21 -3 38 1 45 9 15 19 65 22 65 4 0 -11 22 -16 97 -21 53 -4 108 -11 122 -16 17 -5 5 -6 -34 -3 -33 2 -107 -2 -165 -10 l-105 -14 128 4 c84 3 127 1 127 -6 0 -5 -19 -10 -42 -10 -57 0 -88 -9 -88 -26 0 -10 15 -14 56 -14 31 0 53 -4 49 -9 -3 -5 3 -12 12 -14 10 -2 -11 -3 -47 0 -36 2 -105 -3 -155 -10 l-90 -15 152 6 c191 6 226 -4 278 -81 20 -29 38 -50 41 -49 3 2 9 0 12 -4 4 -4 1 -4 -7 1 -11 6 -13 3 -7 -16 43 -154 53 -314 32 -514 -9 -83 -21 -172 -27 -200 -6 -27 -12 -66 -15 -85 -6 -53 -81 -354 -131 -530 -47 -167 -150 -479 -163 -495 -4 -5 -10 -23 -14 -40 -12 -49 -153 -397 -229 -565 -79 -175 -174 -360 -223 -436 -19 -28 -34 -54 -34 -57 0 -3 -28 -50 -61 -104 -159 -255 -294 -404 -389 -431 -30 -9 -31 -10 -10 -11 14 -1 49 14 78 33 46 31 52 33 52 15 0 -10 -5 -19 -11 -19 -5 0 -8 -4 -5 -9 10 -16 -5 -39 -22 -36 -28 6 -28 6 -8 14 11 4 15 10 10 14 -16 9 -35 -8 -29 -25 4 -9 19 -18 35 -20 20 -3 27 -1 23 9 -3 9 0 11 10 7 8 -3 17 -15 20 -26 4 -12 11 -18 19 -13 7 3 5 0 -4 -8 -16 -12 -16 -15 -1 -36 12 -18 13 -28 4 -48 -6 -13 -7 -22 -2 -19 13 8 19 -15 11 -44 -4 -14 -12 -24 -19 -22 -7 1 -9 -2 -6 -8 4 -6 13 -9 20 -6 7 2 16 -2 19 -10 6 -16 -36 -30 -55 -19 -7 5 -10 3 -7 -6 3 -8 17 -13 34 -12 16 0 23 -1 17 -4 -7 -2 -13 -11 -13 -19 0 -8 -7 -14 -16 -14 -8 0 -13 -4 -10 -9 3 -5 15 -7 26 -4 16 4 19 2 14 -11 -4 -12 -10 -13 -24 -6 -25 13 -31 13 -29 -2 3 -27 -2 -38 -18 -38 -9 0 -14 -3 -10 -6 3 -4 20 -2 36 4 19 7 31 7 31 1 0 -8 -14 -13 -31 -11 -4 1 -14 -7 -23 -17 -15 -16 -15 -18 1 -18 10 0 24 4 31 10 26 20 11 -6 -20 -36 -18 -17 -26 -28 -18 -25 12 4 16 -2 18 -23 1 -16 -2 -29 -8 -29 -7 0 -7 -6 -1 -18 10 -18 11 -24 11 -48 0 -9 5 -12 13 -8 9 5 9 3 -1 -7 -11 -12 -14 -12 -21 0 -6 9 -8 5 -8 -13 -1 -16 7 -31 19 -37 11 -6 17 -17 14 -25 -6 -16 10 -20 17 -4 3 6 4 5 3 -2 -1 -7 -17 -18 -36 -24 -30 -10 -31 -11 -10 -17 13 -3 19 -10 15 -17 -4 -6 -1 -17 5 -25 7 -8 8 -15 3 -15 -5 0 -10 -7 -11 -15 -1 -8 -3 -22 -4 -30 -1 -8 -8 -15 -17 -16 -10 0 -11 -3 -4 -5 7 -3 9 -12 6 -20 -7 -19 2 -18 23 3 19 20 20 22 -2 -32 -5 -11 -2 -14 12 -8 14 5 16 3 11 -11 -4 -10 -7 -22 -7 -27 0 -6 -4 -8 -8 -5 -5 3 -8 -9 -7 -26 1 -18 7 -34 14 -36 9 -3 9 -7 0 -18 -9 -11 -8 -14 4 -14 8 0 17 3 20 8 2 4 2 1 1 -5 -2 -7 5 -13 15 -13 10 0 18 -7 18 -15 0 -11 -4 -12 -14 -4 -9 9 -13 8 -13 0 0 -7 -4 -10 -9 -6 -5 3 -12 1 -15 -4 -4 -5 -2 -12 3 -15 5 -4 12 -2 16 4 7 12 25 4 25 -11 0 -6 -6 -7 -12 -3 -8 4 -9 3 -5 -2 9 -9 11 -10 72 -13 32 -2 36 -4 20 -11 -15 -6 -6 -9 35 -11 30 -2 -6 -6 -80 -9 l-135 -6 140 -2 c77 -1 160 -7 185 -13 70 -17 88 -18 205 -20 87 -1 121 3 161 18 180 69 478 408 726 828 237 400 399 797 653 1605 52 165 158 554 245 895 119 472 162 628 169 616 4 -5 7 9 7 32 0 23 12 92 26 152 15 61 29 133 32 160 4 28 8 61 11 75 8 41 35 318 40 415 3 50 8 108 10 129 2 22 5 78 6 125 2 134 -4 127 110 152 84 19 99 25 99 42 0 15 -3 17 -13 9 -7 -6 -22 -10 -32 -10 -11 1 -32 -2 -47 -5 -16 -4 -28 -3 -28 1 0 8 47 21 130 36 8 2 28 8 43 14 16 7 33 12 38 12 5 0 9 5 9 11 0 10 -83 6 -122 -7 -9 -2 -19 -1 -22 4 -2 4 76 19 175 32 98 13 175 28 171 32 -9 9 -107 17 -216 19 -153 2 4 32 234 45 98 6 143 17 109 28 -8 2 -29 9 -48 15 -19 6 -52 11 -74 11 -36 0 -38 2 -26 17 13 15 12 15 -10 4 -16 -9 -44 -11 -92 -6 -100 10 -100 28 0 21 61 -5 81 -3 81 7 0 38 63 42 305 16 169 -17 245 -21 245 -11 0 19 -334 132 -450 152 -85 15 -130 31 -130 47 0 9 -14 13 -43 13 -50 0 -94 24 -65 35 9 4 23 8 32 9 8 1 19 6 23 10 4 5 -4 6 -19 4 -16 -3 -28 -1 -28 3 0 5 -6 9 -14 9 -8 0 -18 5 -22 12 -5 8 -2 9 12 4 25 -10 294 -66 314 -65 10 0 11 2 2 6 -6 2 -10 9 -7 13 3 5 -13 14 -36 20 -23 7 -67 23 -98 36 -57 26 -278 90 -388 114 -34 8 -60 17 -57 22 3 4 -1 5 -9 2 -23 -9 -67 14 -67 35 0 11 -5 23 -10 26 -6 4 -10 12 -9 18 6 35 -41 112 -54 90z m-1112 -1323 c20 -33 33 -65 29 -71 -4 -8 -3 -9 4 -5 7 4 15 -8 21 -31 41 -146 45 -187 45 -403 1 -120 -3 -175 -19 -349 -2 -24 -10 -48 -17 -53 -9 -6 -9 -11 -2 -14 13 -5 8 -39 -31 -224 -38 -183 -80 -351 -112 -455 -41 -132 -105 -325 -123 -370 l-20 -50 6 40 c3 22 8 47 11 55 3 8 8 26 10 40 2 14 20 85 39 159 19 74 34 136 34 138 0 2 6 1 13 -3 9 -6 9 -4 1 7 -9 11 -6 39 13 119 13 58 28 128 33 155 5 28 12 64 15 80 35 171 45 231 45 255 0 16 7 35 15 43 8 9 10 17 5 19 -6 2 -4 47 6 123 29 224 21 479 -21 700 -5 29 -31 117 -40 138 -15 36 5 14 40 -43z m-136 -60 c27 -39 47 -83 57 -126 11 -45 17 -257 7 -251 -4 3 -7 -22 -6 -54 2 -65 -14 -132 -18 -74 -7 123 -7 198 1 185 7 -12 9 -10 8 7 -1 12 -7 19 -15 16 -9 -3 -13 4 -13 20 0 68 -69 329 -91 342 -5 4 -9 11 -9 17 0 13 46 -34 79 -82z m810 -190 c-10 -172 -38 -372 -50 -364 -5 3 -6 -2 -3 -10 5 -14 -34 -221 -55 -291 -15 -49 -13 2 4 91 18 98 34 210 41 289 13 140 62 441 70 432 2 -1 -2 -67 -7 -147z m-843 -637 c-14 -98 -66 -324 -115 -505 -11 -42 -18 -84 -15 -92 5 -14 -17 -80 -141 -421 -18 -49 -35 -97 -38 -105 -3 -10 -6 -7 -6 8 -1 13 28 100 63 195 99 267 106 291 111 354 2 32 15 96 30 143 14 47 29 108 34 135 5 28 18 84 29 125 10 41 25 105 33 143 15 77 25 90 15 20z m69 -2852 c-15 -45 -30 -81 -33 -81 -4 0 -8 -12 -9 -26 -2 -36 -144 -318 -214 -425 -53 -81 -166 -221 -199 -246 -8 -6 -19 -9 -24 -6 -5 4 -6 1 -3 -4 4 -6 0 -16 -8 -23 -12 -10 -19 -10 -32 1 -16 12 -17 12 -6 -2 11 -13 10 -19 -5 -31 -42 -36 -114 -79 -142 -84 -17 -4 -33 -11 -36 -15 -3 -5 -13 -9 -22 -9 -19 0 51 51 76 54 8 2 16 9 17 17 2 8 18 30 37 49 18 19 51 55 72 80 38 45 40 39 4 -12 -17 -24 -17 -28 -4 -28 9 0 16 5 16 11 0 5 5 7 12 3 6 -4 9 -3 5 2 -3 5 6 23 20 39 14 17 51 65 83 108 32 43 60 74 62 70 3 -4 3 -2 1 5 -3 14 34 74 49 80 4 2 8 8 8 13 0 5 19 39 43 76 24 38 56 91 72 120 15 29 32 50 38 46 6 -3 7 -1 3 5 -6 10 135 305 142 297 2 -2 -8 -40 -23 -84z"/>
</g>
</svg>
